<svg width="101" height="66" viewBox="0 0 101 66" fill="none" xmlns="http://www.w3.org/2000/svg">
<rect width="101" height="66" rx="10" fill="white"/>
<g clip-path="url(#clip0_3_258)">
<path d="M84.2625 56.8768H16.7375C15.2255 56.8768 14 55.5578 14 53.9304V11.875C14 10.2476 15.2255 8.92859 16.7375 8.92859H84.2625C85.7745 8.92859 87 10.2476 87 11.875V53.9304C87 55.5568 85.7745 56.8768 84.2625 56.8768Z" fill="white"/>
<path d="M40.9717 10.4597C48.7608 10.4597 56.5499 10.4892 64.3381 10.4401C66.477 10.4263 68.6159 10.4136 70.7548 10.3851C70.9373 10.3822 71.118 10.4106 71.2995 10.4283C72.1692 10.5098 72.3955 11.2582 72.5697 12.0469C74.4093 20.3391 73.8253 29.1705 70.5568 36.9697C69.6853 39.0489 68.6214 41.0073 67.4451 42.895C66.5208 44.379 65.5134 45.7963 64.4111 47.1379C63.5889 48.1387 62.7248 49.0943 61.8077 49.9871C60.0822 51.6675 58.2508 53.2006 56.1156 54.2535C54.9831 54.8123 53.796 55.162 52.5604 55.3486C51.3286 55.5352 50.0912 55.5332 48.8557 55.5038C42.0266 55.3447 35.1974 55.4684 28.3683 55.435C24.8332 55.4183 21.2973 55.4311 17.7623 55.435C17.3927 55.435 17.0286 55.4036 16.68 55.2808C15.9555 55.0274 15.5166 54.3439 15.4755 53.4373C15.4637 53.18 15.4673 52.9217 15.4673 52.6644C15.4673 39.4752 15.4664 26.286 15.4682 13.0978C15.4682 12.7206 15.4755 12.3464 15.544 11.9683C15.7091 11.0638 16.3771 10.5246 17.2248 10.4696C17.5195 10.4499 17.8161 10.4588 18.1118 10.4588C25.7311 10.4617 33.3514 10.4617 40.9717 10.4597Z" fill="#2F4653"/>
<path d="M72.338 46.2363C72.7623 46.1125 73.1072 45.8513 73.4312 45.5724C74.8136 44.384 75.8411 42.8803 76.718 41.2421C79.8789 35.3335 81.7404 28.704 82.1054 21.8644C82.1428 21.1681 82.1465 20.4737 82.1665 19.7783C82.1693 19.6752 82.1446 19.5652 82.2286 19.4532C82.4795 19.5318 82.7058 19.6644 82.9102 19.8589C85.3566 22.1924 85.7709 26.6239 85.5063 29.8993C84.8785 37.6533 80.9009 45.9289 74.5143 49.9321C74.3674 50.0244 74.2187 50.1138 74.0681 50.2002C73.0817 50.7669 72.0569 51.2118 71.0021 51.5929C70.8032 51.6646 70.6042 51.7373 70.4071 51.809C71.2768 51.7569 72.4794 51.5939 73.8418 51.1116C77.4845 49.8231 80.3862 46.9149 82.401 43.4725C82.8965 42.6259 83.3409 41.7499 83.7753 40.8659C83.8017 40.8129 83.8282 40.7569 83.8957 40.7412C83.976 40.7432 84.0089 40.8119 84.0362 40.8797C85.0482 43.3959 84.7872 45.976 83.361 48.2497C80.5532 52.7233 74.6202 55.3938 69.7136 55.4154C65.1913 55.435 60.6699 55.4291 56.1475 55.4282C56.0052 55.4282 55.7889 55.5087 55.7497 55.2926C55.7077 55.0628 55.9385 55.0903 56.0709 55.0255C62.9319 51.6302 68.1232 45.7069 71.5067 38.4734C74.4468 32.1877 75.9241 25.0731 75.3483 18.037C75.164 15.783 74.7753 13.5476 74.1776 11.3781C74.142 11.2474 74.0918 11.1198 74.0681 10.9862C73.986 10.5187 74.1146 10.4008 74.559 10.448C75.6695 10.5648 76.6496 11.0078 77.5228 11.7473C79.1754 13.1469 79.8095 15.6848 80.191 17.818C80.9045 21.8133 80.1755 26.2389 79.3077 30.1478C78.1789 35.2353 76.2736 40.2069 73.5261 44.5332C73.2332 44.9949 72.8946 45.4221 72.5798 45.866C72.4959 45.9878 72.4192 46.1135 72.338 46.2363Z" fill="url(#paint0_linear_3_258)"/>
<path d="M33.2355 29.4593C33.2282 28.8318 33.0475 28.2002 32.5329 27.8476C32.0319 27.5049 31.3658 27.5118 30.9716 28.0333C30.9397 28.0755 30.8712 28.1472 30.8913 28.2091C30.9114 28.271 31.0355 28.2562 31.0875 28.2847C31.1769 28.3328 31.2125 28.4291 31.2098 28.5322C31.2061 28.652 31.2052 29.7962 31.2006 31.3735C29.9113 31.3657 28.621 31.3568 27.3316 31.349C27.307 31.0043 27.2979 30.6173 27.3207 30.1969C27.3417 29.809 27.3882 29.423 27.4585 29.0419C27.4895 28.875 27.5251 28.709 27.5652 28.545C27.609 28.3643 27.7304 28.1423 27.7176 27.9527C27.7158 27.9272 27.7103 27.9017 27.6957 27.882C27.6611 27.8359 27.5944 27.8437 27.5415 27.8585C27.213 27.9488 26.8936 28.1374 26.6418 28.3819C26.5642 28.4566 26.3571 28.6687 26.17 29.0301C25.6736 29.9868 25.6344 31.3421 25.6344 31.3421C25.6088 32.2182 25.5769 33.9939 26.4447 35.8374C26.4447 35.8374 27.0524 37.1299 27.922 37.4481C28.0936 37.511 28.1401 37.4697 28.1547 37.4491C28.2222 37.3558 28.0772 37.1947 28.0343 37.123C27.9549 36.9914 27.8874 36.8519 27.829 36.7076C27.7085 36.41 27.6282 36.0947 27.5689 35.7775C27.3873 34.811 27.2696 33.8328 27.2951 32.8458H31.2006C31.2006 34.0823 31.2006 35.3188 31.2006 36.5553C31.2006 36.8009 31.2937 37.0376 31.5045 37.1535C31.6313 37.2232 31.7755 37.2477 31.917 37.2664C32.1642 37.2998 32.417 37.3175 32.6616 37.2674C32.8048 37.2379 32.9481 37.1819 33.0548 37.0749C33.2273 36.903 33.23 36.6693 33.23 36.4345C33.23 34.5714 33.2465 32.7083 33.2437 30.8451C33.2437 30.3835 33.241 29.921 33.2355 29.4593Z" fill="url(#paint1_linear_3_258)"/>
<path d="M27.8846 37.9136C26.3088 37.4176 25.6937 35.6203 25.357 34.0616C25.284 33.7218 25.2138 33.3869 25.1718 33.0402C25.0459 31.9923 25.0513 30.8402 25.3671 29.8286C25.1262 29.8866 25.0176 30.1095 24.877 30.2902C24.3633 30.9502 24.3232 31.7212 24.2985 32.4873C24.2401 34.2866 24.8506 35.5663 24.9865 35.8413C25.2931 36.4591 25.6271 36.8657 25.7257 36.9825C26.0761 37.4 26.4283 37.6897 26.6984 37.8822C26.484 37.8252 26.181 37.7182 25.8571 37.5031C25.5569 37.3037 25.3424 37.0817 25.2019 36.9118C24.9984 36.6319 24.8551 36.3854 24.7621 36.2106C24.5111 35.7431 24.1991 35.1607 24.0403 34.3799C23.9956 34.1608 23.9655 33.9379 23.8852 33.9291C23.7693 33.9163 23.6388 34.3602 23.6105 34.4555C23.5192 34.7649 23.4964 35.0507 23.4973 35.2019C23.5037 35.7912 23.9144 36.9374 24.8953 37.7152C24.8953 37.7152 25.753 38.3949 27.2203 38.4469C27.2806 38.4489 27.6355 38.44 27.8992 38.2367C28.0297 38.1395 28.1155 37.9863 27.8846 37.9136Z" fill="url(#paint2_linear_3_258)"/>
<path d="M25.3698 29.8228C25.3684 29.8257 25.3684 29.8286 25.3671 29.8316C25.3698 29.8316 25.3725 29.8301 25.3753 29.8286L25.3698 29.8228Z" fill="url(#paint3_linear_3_258)"/>
<path d="M25.3689 29.8228L25.3735 29.8277L25.3917 29.8002L25.3689 29.8228Z" fill="url(#paint4_linear_3_258)"/>
<path d="M53.4036 29.2403C53.41 29.0243 53.4027 28.7041 53.3315 28.3191C53.3242 28.2778 53.3151 28.1796 53.2685 28.0657C53.2439 28.0038 53.1745 27.8398 53.013 27.7278C52.9263 27.6689 52.8296 27.6336 52.7274 27.6345C52.6562 27.6355 52.5851 27.6404 52.5148 27.6404C52.4162 27.6414 52.3177 27.6434 52.2191 27.6444C52.0275 27.6463 51.8359 27.6414 51.6452 27.6493C51.4736 27.6561 51.313 27.719 51.1908 27.8575C51.0457 28.0215 50.9298 28.2553 50.7382 28.7561C50.7062 28.8386 50.6807 28.9094 50.6633 28.9575C50.5903 29.1274 49.5601 31.5317 49.1705 32.227C49.1422 32.2791 49.0783 32.3901 48.9998 32.3861C48.9205 32.3901 48.8575 32.2791 48.8292 32.227C48.4405 31.5307 47.4094 29.1274 47.3364 28.9575C47.319 28.9094 47.2935 28.8396 47.2615 28.7561C47.0699 28.2553 46.954 28.0215 46.8089 27.8575C46.6876 27.719 46.527 27.6561 46.3545 27.6493C46.1629 27.6424 45.9713 27.6463 45.7805 27.6444C45.682 27.6434 45.5834 27.6414 45.4849 27.6404C45.4137 27.6404 45.3425 27.6355 45.2723 27.6345C45.1701 27.6336 45.0743 27.6689 44.9867 27.7278C44.8252 27.8398 44.7558 28.0038 44.7312 28.0657C44.6846 28.1796 44.6755 28.2778 44.6682 28.3191C44.597 28.7051 44.5897 29.0253 44.5961 29.2403C44.5213 31.7144 44.4465 34.1864 44.3707 36.6604C44.3735 36.7017 44.3808 36.7587 44.4018 36.8225C44.5195 37.1849 44.9465 37.3627 45.275 37.3676C45.6072 37.3725 46.0041 37.2026 46.1446 36.8745C46.1465 36.8706 46.172 36.8068 46.1857 36.7361C46.2833 36.2322 46.3399 32.175 46.3609 30.4081C47.2606 32.392 47.9642 33.8751 48.2899 34.5292C48.3556 34.6637 48.4971 34.9338 48.7571 35.0261C48.8319 35.0536 48.915 35.0684 48.9998 35.0694C49.0847 35.0684 49.1677 35.0536 49.2426 35.0261C49.5026 34.9338 49.6432 34.6637 49.7098 34.5292C50.0346 33.8751 50.7391 32.392 51.6388 30.4081C51.6598 32.176 51.7164 36.2322 51.814 36.7361C51.8277 36.8068 51.8532 36.8706 51.8551 36.8745C51.9956 37.2026 52.3925 37.3725 52.7247 37.3676C53.0541 37.3627 53.4802 37.1849 53.5979 36.8225C53.6189 36.7587 53.6262 36.7017 53.629 36.6604C53.5541 34.1864 53.4793 31.7134 53.4036 29.2403Z" fill="url(#paint5_linear_3_258)"/>
<path d="M37.3773 35.0958C37.3974 35.0988 37.4175 35.1027 37.4357 35.1086C37.4357 35.1106 37.4348 35.1115 37.4339 35.1135C37.4193 35.141 37.3654 35.1253 37.3773 35.0958Z" fill="white"/>
<path d="M42.5786 27.9291C42.3916 27.6748 42.0722 27.6649 41.7647 27.6561C41.4736 27.6473 41.1031 27.6365 40.8714 27.9134C40.7427 28.0676 40.7071 28.2493 40.6962 28.3593C40.6907 30.1851 40.6852 32.0099 40.6797 33.8358C40.6825 34.0145 40.666 34.3514 40.4981 34.7216C40.3211 35.1125 40.0702 35.3345 40.0063 35.3885C40.0063 35.3885 39.5793 35.7519 39.0208 35.8C38.9651 35.8049 38.9058 35.8069 38.9058 35.8069C38.8912 35.8079 38.8766 35.8079 38.862 35.8079C38.8474 35.8079 38.8328 35.8069 38.8182 35.8069C38.8182 35.8069 38.7598 35.8049 38.7033 35.8C38.1448 35.7509 37.7178 35.3885 37.7178 35.3885C37.653 35.3335 37.4029 35.1125 37.2259 34.7216C37.058 34.3514 37.0416 34.0145 37.0443 33.8358C37.0389 32.0099 37.0334 30.1851 37.0279 28.3593C37.017 28.2493 36.9823 28.0676 36.8527 27.9134C36.6209 27.6365 36.2505 27.6473 35.9594 27.6561C35.6528 27.6649 35.3325 27.6748 35.1454 27.9291C34.9985 28.1285 35.0104 28.375 35.0222 28.4821C35.0222 30.3924 35.0222 32.3026 35.0222 34.2139C35.0222 34.7472 35.1646 35.4533 35.64 36.1241C36.1738 36.8774 36.9321 37.2133 37.1657 37.3066C37.6393 37.4962 38.1056 37.5492 38.2479 37.564C38.4952 37.5905 38.706 37.5915 38.862 37.5866C39.0181 37.5915 39.2289 37.5905 39.4761 37.564C39.6185 37.5483 40.0848 37.4952 40.5584 37.3066C40.792 37.2133 41.5503 36.8774 42.0841 36.1241C42.5586 35.4533 42.7018 34.7472 42.7018 34.2139C42.7018 32.3036 42.7018 30.3933 42.7018 28.4821C42.7137 28.376 42.7256 28.1295 42.5786 27.9291Z" fill="url(#paint6_linear_3_258)"/>
<path d="M37.8126 37.4618C37.829 37.4647 37.8446 37.4697 37.8592 37.4765L37.8327 37.4942L37.8126 37.4618Z" fill="white"/>
<path d="M63.7084 30.687C63.4511 29.7668 62.9255 28.9555 62.2119 28.378C61.4025 27.7239 60.3988 27.3811 59.3905 27.3556C58.3822 27.3811 57.3784 27.7239 56.569 28.378C55.8545 28.9555 55.3289 29.7668 55.0725 30.687C54.338 33.329 55.443 36.6997 58.0874 37.4451C58.5145 37.565 58.9534 37.616 59.3905 37.6033C59.8285 37.616 60.2674 37.565 60.6935 37.4451C63.3389 36.6997 64.443 33.329 63.7084 30.687ZM61.7456 33.6364C61.4692 34.8876 60.6972 36.2322 59.3905 36.2469C58.0838 36.2322 57.3118 34.8876 57.0353 33.6364C56.7689 32.4313 56.8181 31.0121 57.445 29.9367C57.8794 29.1912 58.6185 28.7502 59.3896 28.7443C60.1615 28.7502 60.8998 29.1922 61.3341 29.9367C61.9628 31.0121 62.0112 32.4313 61.7456 33.6364Z" fill="url(#paint7_linear_3_258)"/>
</g>
<defs>
<linearGradient id="paint0_linear_3_258" x1="52.4353" y1="39.7988" x2="86.8054" y2="29.996" gradientUnits="userSpaceOnUse">
<stop offset="0.329" stop-color="#9C8837"/>
<stop offset="0.5606" stop-color="#F7E59E"/>
<stop offset="0.6012" stop-color="#EFDD95"/>
<stop offset="0.6639" stop-color="#DDCA81"/>
<stop offset="0.7405" stop-color="#C4B062"/>
<stop offset="0.7875" stop-color="#B39F4D"/>
</linearGradient>
<linearGradient id="paint1_linear_3_258" x1="31.3663" y1="33.6256" x2="24.7836" y2="28.9973" gradientUnits="userSpaceOnUse">
<stop offset="0.329" stop-color="#9C8837"/>
<stop offset="0.5606" stop-color="#F7E59E"/>
<stop offset="0.6012" stop-color="#EFDD95"/>
<stop offset="0.6639" stop-color="#DDCA81"/>
<stop offset="0.7405" stop-color="#C4B062"/>
<stop offset="0.7875" stop-color="#B39F4D"/>
</linearGradient>
<linearGradient id="paint2_linear_3_258" x1="29.0299" y1="36.9486" x2="22.4472" y2="32.3203" gradientUnits="userSpaceOnUse">
<stop offset="0.329" stop-color="#9C8837"/>
<stop offset="0.5606" stop-color="#F7E59E"/>
<stop offset="0.6012" stop-color="#EFDD95"/>
<stop offset="0.6639" stop-color="#DDCA81"/>
<stop offset="0.7405" stop-color="#C4B062"/>
<stop offset="0.7875" stop-color="#B39F4D"/>
</linearGradient>
<linearGradient id="paint3_linear_3_258" x1="33.6373" y1="36.5623" x2="23.7638" y2="29.6201" gradientUnits="userSpaceOnUse">
<stop offset="0.329" stop-color="#9C8837"/>
<stop offset="0.5606" stop-color="#F7E59E"/>
<stop offset="0.6012" stop-color="#EFDD95"/>
<stop offset="0.6639" stop-color="#DDCA81"/>
<stop offset="0.7405" stop-color="#C4B062"/>
<stop offset="0.7875" stop-color="#B39F4D"/>
</linearGradient>
<linearGradient id="paint4_linear_3_258" x1="30.8913" y1="34.301" x2="24.3086" y2="29.6729" gradientUnits="userSpaceOnUse">
<stop offset="0.329" stop-color="#9C8837"/>
<stop offset="0.5606" stop-color="#F7E59E"/>
<stop offset="0.6012" stop-color="#EFDD95"/>
<stop offset="0.6639" stop-color="#DDCA81"/>
<stop offset="0.7405" stop-color="#C4B062"/>
<stop offset="0.7875" stop-color="#B39F4D"/>
</linearGradient>
<linearGradient id="paint5_linear_3_258" x1="54.5383" y1="35.7039" x2="44.5169" y2="30.7651" gradientUnits="userSpaceOnUse">
<stop offset="0.329" stop-color="#9C8837"/>
<stop offset="0.5606" stop-color="#F7E59E"/>
<stop offset="0.6012" stop-color="#EFDD95"/>
<stop offset="0.6639" stop-color="#DDCA81"/>
<stop offset="0.7405" stop-color="#C4B062"/>
<stop offset="0.7875" stop-color="#B39F4D"/>
</linearGradient>
<linearGradient id="paint6_linear_3_258" x1="43.6477" y1="35.1897" x2="33.5379" y2="29.3089" gradientUnits="userSpaceOnUse">
<stop offset="0.329" stop-color="#9C8837"/>
<stop offset="0.5606" stop-color="#F7E59E"/>
<stop offset="0.6012" stop-color="#EFDD95"/>
<stop offset="0.6639" stop-color="#DDCA81"/>
<stop offset="0.7405" stop-color="#C4B062"/>
<stop offset="0.7875" stop-color="#B39F4D"/>
</linearGradient>
<linearGradient id="paint7_linear_3_258" x1="66.2469" y1="36.7912" x2="53.7283" y2="30.0403" gradientUnits="userSpaceOnUse">
<stop offset="0.329" stop-color="#9C8837"/>
<stop offset="0.5606" stop-color="#F7E59E"/>
<stop offset="0.6012" stop-color="#EFDD95"/>
<stop offset="0.6639" stop-color="#DDCA81"/>
<stop offset="0.7405" stop-color="#C4B062"/>
<stop offset="0.7875" stop-color="#B39F4D"/>
</linearGradient>
<clipPath id="clip0_3_258">
<rect width="73" height="47.9482" fill="white" transform="translate(14 8.92859)"/>
</clipPath>
</defs>
</svg>
